<?xml version="1.0" standalone="no"?>
<!DOCTYPE svg PUBLIC "-//W3C//DTD SVG 20010904//EN"
 "http://www.w3.org/TR/2001/REC-SVG-20010904/DTD/svg10.dtd">
<svg version="1.0" xmlns="http://www.w3.org/2000/svg"
 width="319.000000pt" height="319.000000pt" viewBox="0 0 319.000000 319.000000"
 preserveAspectRatio="xMidYMid meet">
<metadata>
Created by potrace 1.14, written by Peter Selinger 2001-2017
</metadata>
<g transform="translate(0.000000,319.000000) scale(0.100000,-0.100000)"
fill="#000000" stroke="none">
<path d="M1824 2938 c-22 -34 -27 -55 -27 -99 0 -52 -1 -56 -27 -66 -25 -9
-29 -8 -38 13 -17 35 -44 45 -76 28 -42 -21 -45 -18 -41 34 3 55 -7 72 -45 72
-21 0 -38 -11 -65 -42 -35 -42 -37 -42 -50 -23 -27 39 -47 53 -83 60 -20 4
-47 9 -59 11 -37 7 -77 -66 -76 -137 0 -53 -1 -56 -31 -69 -17 -7 -41 -13 -52
-14 -12 0 -30 -8 -40 -17 -11 -9 -34 -24 -53 -34 l-34 -17 7 37 c4 20 4 50 1
66 -6 25 -11 29 -40 29 -26 0 -41 -9 -70 -42 -35 -38 -39 -40 -51 -23 -7 10
-15 22 -16 27 -4 10 -111 48 -134 48 -8 0 -26 -19 -41 -42 -21 -34 -26 -55
-26 -100 0 -42 -3 -58 -13 -58 -19 0 -61 -41 -69 -67 -8 -30 40 -83 78 -86 15
-1 32 -8 36 -16 5 -8 15 -12 23 -9 8 3 22 0 32 -8 11 -7 23 -11 27 -8 5 3 9 0
9 -5 0 -6 -7 -11 -15 -11 -19 0 -125 -99 -125 -116 0 -7 -8 -10 -18 -8 -43 12
-92 -71 -85 -145 4 -45 2 -49 -21 -55 -31 -8 -69 -60 -62 -84 10 -29 51 -63
80 -65 15 -1 31 -8 35 -16 5 -8 16 -11 25 -8 20 8 20 3 0 -28 -11 -17 -14 -36
-10 -56 3 -17 1 -39 -4 -49 -7 -13 -7 -21 0 -25 6 -3 7 -17 4 -29 -4 -18 3
-30 33 -55 44 -36 61 -38 95 -12 24 19 24 19 25 -2 1 -12 9 -38 17 -57 9 -19
38 -120 66 -225 27 -104 59 -224 70 -265 11 -41 58 -218 105 -394 46 -175 91
-329 100 -342 8 -13 27 -35 42 -49 l28 -27 180 5 180 5 40 -48 40 -49 199 0
200 -1 50 42 c28 24 59 50 69 58 13 11 53 15 190 16 94 0 183 6 197 11 32 14
66 50 80 88 9 24 84 299 205 750 83 312 139 514 148 530 5 11 21 30 34 43 26
24 30 41 19 88 -11 48 22 83 78 81 65 -3 96 18 96 64 0 21 -7 44 -15 53 -8 8
-12 21 -9 29 3 8 -2 21 -10 30 -9 9 -16 22 -16 30 0 19 -18 33 -52 41 -14 3
-33 9 -42 12 -9 3 -25 -4 -39 -19 -27 -30 -44 -24 -56 21 -11 37 -2 46 38 37
18 -4 42 0 65 11 31 15 36 22 36 52 0 18 -5 43 -12 55 -7 12 -13 31 -15 42 -2
10 -7 22 -12 25 -5 3 -10 14 -12 25 -2 11 -13 24 -24 30 -15 7 -20 18 -18 40
1 16 -4 40 -12 52 -8 12 -15 33 -15 47 0 13 -7 27 -16 30 -9 4 -14 9 -11 13
14 13 -15 41 -50 48 -21 5 -43 9 -49 11 -19 3 -31 -9 -48 -51 -13 -31 -19 -37
-26 -25 -11 16 -3 68 12 87 7 9 4 27 -11 57 -26 56 -47 69 -81 50 -41 -22 -47
-17 -46 37 1 65 -21 86 -65 63 -16 -8 -39 -28 -51 -44 -25 -34 -48 -39 -48
-11 0 26 -17 37 -88 57 -57 16 -63 16 -80 1 -11 -10 -22 -13 -32 -7 -8 5 -24
3 -41 -6 -42 -21 -46 -18 -45 40 1 62 -3 69 -40 69 -20 0 -39 -13 -68 -43 -37
-40 -40 -42 -53 -24 -7 10 -13 21 -13 25 0 9 -67 36 -113 44 -34 7 -37 5 -63
-37z m293 -283 c3 -9 -2 -22 -13 -30 -23 -17 -23 -16 -17 18 6 30 20 36 30 12z
m753 -269 c0 -6 -4 -17 -9 -24 -11 -18 -34 9 -25 31 6 17 34 12 34 -7z"/>
<path d="M383 773 c-13 -2 -23 -8 -23 -13 0 -4 -24 -11 -52 -15 -56 -7 -79
-19 -124 -60 -24 -23 -29 -24 -44 -10 -20 18 -84 20 -98 2 -21 -25 -24 -65 -7
-101 9 -19 14 -39 11 -45 -3 -5 1 -16 9 -24 8 -9 15 -22 15 -31 0 -17 12 -26
59 -43 39 -14 64 -5 82 29 12 21 12 21 25 -5 28 -53 87 -53 101 0 l7 28 7 -35
c4 -19 3 -40 -2 -46 -5 -6 -10 -21 -13 -35 -5 -30 38 -79 70 -79 12 0 30 -7
38 -16 9 -8 22 -14 29 -11 6 2 19 -2 27 -9 14 -11 22 -10 58 7 23 12 42 25 42
29 0 23 35 40 80 40 41 0 51 -4 61 -22 6 -13 12 -24 13 -25 1 -1 18 -9 38 -17
34 -14 38 -14 61 4 14 11 28 34 32 50 4 17 11 30 16 30 5 0 12 12 15 28 4 15
11 33 17 39 12 17 -26 98 -53 113 -16 8 -25 7 -42 -5 -38 -26 -50 -20 -43 25
13 88 -45 109 -110 39 l-38 -41 -18 23 c-10 13 -19 27 -19 32 0 4 -7 7 -15 7
-19 0 -20 16 -1 27 7 4 18 18 25 30 10 19 8 26 -9 43 -11 11 -33 21 -50 21
-16 1 -38 2 -48 3 -10 0 -30 11 -46 24 -28 22 -39 24 -83 15z m-31 -255 c-7
-7 -12 -8 -12 -2 0 6 3 14 7 17 3 4 9 5 12 2 2 -3 -1 -11 -7 -17z"/>
</g>
</svg>
